<?xml version="1.0" encoding="UTF-8" standalone="no"?>
<!-- Created with Inkscape (http://www.inkscape.org/) -->

<svg
   xmlns:dc="http://purl.org/dc/elements/1.1/"
   xmlns:cc="http://creativecommons.org/ns#"
   xmlns:rdf="http://www.w3.org/1999/02/22-rdf-syntax-ns#"
   xmlns:svg="http://www.w3.org/2000/svg"
   xmlns="http://www.w3.org/2000/svg"
   xmlns:sodipodi="http://sodipodi.sourceforge.net/DTD/sodipodi-0.dtd"
   xmlns:inkscape="http://www.inkscape.org/namespaces/inkscape"
   width="640"
   height="480"
   viewBox="0 0 640.00002 480.00001"
   id="svg2"
   version="1.1"
   inkscape:version="0.91 r13725"
   sodipodi:docname="bg-showcase-3.svg"
   inkscape:export-filename="/home/massilva/Documentos/code/giiro-landpage/img/bg-showcase-1.jpg"
   inkscape:export-xdpi="90"
   inkscape:export-ydpi="90">
  <defs
     id="defs4">
    <marker
       inkscape:stockid="Arrow2Lend"
       orient="auto"
       refY="0.0"
       refX="0.0"
       id="marker5019"
       style="overflow:visible;"
       inkscape:isstock="true">
      <path
         id="path5021"
         style="fill-rule:evenodd;stroke-width:0.625;stroke-linejoin:round;stroke:#000000;stroke-opacity:1;fill:#000000;fill-opacity:1"
         d="M 8.7185878,4.0337352 L -2.2072895,0.016013256 L 8.7185884,-4.0017078 C 6.9730900,-1.6296469 6.9831476,1.6157441 8.7185878,4.0337352 z "
         transform="scale(1.1) rotate(180) translate(1,0)" />
    </marker>
    <marker
       inkscape:stockid="Arrow2Lend"
       orient="auto"
       refY="0.0"
       refX="0.0"
       id="Arrow2Lend"
       style="overflow:visible;"
       inkscape:isstock="true">
      <path
         id="path4402"
         style="fill-rule:evenodd;stroke-width:0.625;stroke-linejoin:round;stroke:#000000;stroke-opacity:1;fill:#000000;fill-opacity:1"
         d="M 8.7185878,4.0337352 L -2.2072895,0.016013256 L 8.7185884,-4.0017078 C 6.9730900,-1.6296469 6.9831476,1.6157441 8.7185878,4.0337352 z "
         transform="scale(1.1) rotate(180) translate(1,0)" />
    </marker>
    <marker
       inkscape:stockid="Arrow1Lend"
       orient="auto"
       refY="0.0"
       refX="0.0"
       id="marker4659"
       style="overflow:visible;"
       inkscape:isstock="true">
      <path
         id="path4661"
         d="M 0.0,0.0 L 5.0,-5.0 L -12.5,0.0 L 5.0,5.0 L 0.0,0.0 z "
         style="fill-rule:evenodd;stroke:#000000;stroke-width:1pt;stroke-opacity:1;fill:#000000;fill-opacity:1"
         transform="scale(0.8) rotate(180) translate(12.5,0)" />
    </marker>
    <marker
       inkscape:stockid="Arrow1Lend"
       orient="auto"
       refY="0.0"
       refX="0.0"
       id="Arrow1Lend"
       style="overflow:visible;"
       inkscape:isstock="true">
      <path
         id="path4384"
         d="M 0.0,0.0 L 5.0,-5.0 L -12.5,0.0 L 5.0,5.0 L 0.0,0.0 z "
         style="fill-rule:evenodd;stroke:#000000;stroke-width:1pt;stroke-opacity:1;fill:#000000;fill-opacity:1"
         transform="scale(0.8) rotate(180) translate(12.5,0)" />
    </marker>
  </defs>
  <sodipodi:namedview
     id="base"
     pagecolor="#ffffff"
     bordercolor="#666666"
     borderopacity="1.0"
     inkscape:pageopacity="0.0"
     inkscape:pageshadow="2"
     inkscape:zoom="0.71895425"
     inkscape:cx="366.68053"
     inkscape:cy="340.08154"
     inkscape:document-units="px"
     inkscape:current-layer="layer1"
     showgrid="false"
     units="px"
     inkscape:window-width="1301"
     inkscape:window-height="744"
     inkscape:window-x="65"
     inkscape:window-y="24"
     inkscape:window-maximized="1" />
  <metadata
     id="metadata7">
    <rdf:RDF>
      <cc:Work
         rdf:about="">
        <dc:format>image/svg+xml</dc:format>
        <dc:type
           rdf:resource="http://purl.org/dc/dcmitype/StillImage" />
        <dc:title></dc:title>
      </cc:Work>
    </rdf:RDF>
  </metadata>
  <g
     inkscape:label="Camada 1"
     inkscape:groupmode="layer"
     id="layer1"
     transform="translate(0,-572.36267)">
    <rect
       style="fill:#f9f9f9;fill-opacity:1;stroke:none;stroke-width:2.02102375;stroke-linecap:round;stroke-linejoin:round;stroke-miterlimit:4;stroke-dasharray:none;stroke-dashoffset:0;stroke-opacity:1"
       id="rect5791"
       width="637.979"
       height="477.97897"
       x="1.0105119"
       y="573.37317" />
    <g
       id="XMLID_176_"
       transform="matrix(0.50833771,0,0,0.50833771,183.28488,730.36873)">
      <g
         id="XMLID_172_">
        <g
           id="g5567"
           transform="translate(-41.042866,-73.877158)">
          <g
             transform="translate(160.58669,19.347788)"
             id="XMLID_175_">
            <rect
               style="fill:#7dbae7"
               class="st0"
               height="257.89999"
               id="XMLID_129_"
               width="94.900002"
               x="41.400002"
               y="206.5" />
            <g
               id="XMLID_119_">
              <path
                 style="fill:#474747"
                 inkscape:connector-curvature="0"
                 class="st1"
                 d="m 62.4,505.6 -20.4,0 0,-4 9.4,-10.7 c 1.4,-1.7 2.4,-3.1 3,-4.2 0.6,-1.1 0.9,-2.2 0.9,-3.2 0,-1.3 -0.3,-2.3 -0.9,-3 -0.6,-0.8 -1.6,-1.1 -2.8,-1.1 -1.3,0 -2.4,0.5 -3.1,1.4 -0.7,1 -1.1,2.2 -1.1,3.7 l -5.9,0 0,-0.1 c -0.1,-2.7 0.8,-5 2.7,-6.9 1.9,-1.9 4.3,-2.8 7.5,-2.8 3.1,0 5.6,0.8 7.3,2.4 1.7,1.6 2.6,3.7 2.6,6.4 0,1.8 -0.5,3.5 -1.5,5 -1,1.5 -2.6,3.6 -5,6.3 l -5,6 0,0.1 12.5,0 0,4.7 z"
                 id="XMLID_127_" />
              <path
                 style="fill:#474747"
                 inkscape:connector-curvature="0"
                 class="st1"
                 d="m 86.8,494.5 c 0,3.6 -0.9,6.4 -2.8,8.4 -1.9,2 -4.4,3.1 -7.5,3.1 -3.1,0 -5.6,-1 -7.5,-3.1 -1.9,-2 -2.8,-4.8 -2.8,-8.4 l 0,-8.4 c 0,-3.6 0.9,-6.4 2.8,-8.4 1.9,-2.1 4.4,-3.1 7.5,-3.1 3.1,0 5.6,1 7.5,3.1 1.9,2.1 2.8,4.9 2.8,8.4 l 0,8.4 z m -6.1,-9 c 0,-2 -0.4,-3.5 -1.1,-4.5 -0.7,-1.1 -1.8,-1.6 -3.1,-1.6 -1.3,0 -2.4,0.5 -3.1,1.6 -0.7,1.1 -1.1,2.6 -1.1,4.5 l 0,9.6 c 0,2 0.4,3.5 1.1,4.6 0.7,1.1 1.8,1.6 3.1,1.6 1.3,0 2.4,-0.5 3.1,-1.6 0.7,-1.1 1.1,-2.6 1.1,-4.6 l 0,-9.6 z"
                 id="XMLID_124_" />
              <path
                 style="fill:#474747"
                 inkscape:connector-curvature="0"
                 class="st1"
                 d="m 105.4,505.6 -6.1,0 0,-25.2 -6.3,0 0,-4.7 12.4,-1.1 0,31 z"
                 id="XMLID_122_" />
              <path
                 style="fill:#474747"
                 inkscape:connector-curvature="0"
                 class="st1"
                 d="m 136.3,479.8 c -3.5,4 -5.8,7.7 -7,10.9 -1.2,3.2 -1.9,6.9 -1.9,11.1 l 0,3.8 -6.1,0 0,-3.8 c 0,-4.2 0.8,-8.1 2.3,-11.6 1.6,-3.5 3.8,-7 6.8,-10.4 l -15.6,0 0,-4.7 21.5,0 0,4.7 z"
                 id="XMLID_120_" />
            </g>
            <g
               id="XMLID_76_" />
          </g>
          <g
             transform="translate(160.58669,19.347788)"
             id="XMLID_174_">
            <rect
               style="fill:#a6d17a"
               class="st2"
               height="309.5"
               id="XMLID_117_"
               width="94.900002"
               x="152.8"
               y="154.89999" />
            <g
               id="XMLID_105_">
              <path
                 style="fill:#474747"
                 inkscape:connector-curvature="0"
                 class="st1"
                 d="m 173.8,505.6 -20.4,0 0,-4 9.4,-10.7 c 1.4,-1.7 2.4,-3.1 3,-4.2 0.6,-1.1 0.9,-2.2 0.9,-3.2 0,-1.3 -0.3,-2.3 -0.9,-3 -0.6,-0.8 -1.6,-1.1 -2.8,-1.1 -1.3,0 -2.3,0.5 -3.1,1.4 -0.7,1 -1.1,2.2 -1.1,3.7 l -5.9,0 0,-0.1 c -0.1,-2.7 0.8,-5 2.7,-6.9 1.9,-1.9 4.3,-2.8 7.5,-2.8 3.1,0 5.5,0.8 7.3,2.4 1.7,1.6 2.6,3.7 2.6,6.4 0,1.8 -0.5,3.5 -1.5,5 -1,1.5 -2.6,3.6 -5,6.2 l -5,6 0,0.1 12.4,0 0,4.8 z"
                 id="XMLID_115_" />
              <path
                 style="fill:#474747"
                 inkscape:connector-curvature="0"
                 class="st1"
                 d="m 198.1,494.5 c 0,3.6 -0.9,6.4 -2.8,8.4 -1.9,2 -4.4,3.1 -7.5,3.1 -3.1,0 -5.6,-1 -7.5,-3.1 -1.9,-2 -2.8,-4.8 -2.8,-8.4 l 0,-8.4 c 0,-3.6 0.9,-6.4 2.8,-8.4 1.9,-2 4.4,-3.1 7.5,-3.1 3.1,0 5.6,1 7.5,3.1 1.9,2 2.8,4.8 2.8,8.4 l 0,8.4 z m -6.1,-9 c 0,-2 -0.4,-3.5 -1.1,-4.5 -0.7,-1.1 -1.8,-1.6 -3.1,-1.6 -1.3,0 -2.4,0.5 -3.1,1.6 -0.7,1.1 -1.1,2.6 -1.1,4.5 l 0,9.6 c 0,2 0.4,3.5 1.1,4.6 0.7,1.1 1.8,1.6 3.1,1.6 1.3,0 2.4,-0.5 3.1,-1.6 0.7,-1.1 1.1,-2.6 1.1,-4.6 l 0,-9.6 z"
                 id="XMLID_112_" />
              <path
                 style="fill:#474747"
                 inkscape:connector-curvature="0"
                 class="st1"
                 d="m 216.7,505.6 -6.1,0 0,-25.1 -6.3,0 0,-4.7 12.4,-1.1 0,30.9 z"
                 id="XMLID_110_" />
              <path
                 style="fill:#474747"
                 inkscape:connector-curvature="0"
                 class="st1"
                 d="m 246.7,483 c 0,1.5 -0.4,2.8 -1.2,4 -0.8,1.2 -1.9,2.1 -3.2,2.7 1.7,0.7 3,1.7 3.9,2.9 1,1.3 1.5,2.7 1.5,4.4 0,2.8 -1,5 -2.9,6.6 -2,1.6 -4.5,2.4 -7.5,2.4 -3.2,0 -5.8,-0.8 -7.9,-2.4 -2,-1.6 -3.1,-3.8 -3.1,-6.6 0,-1.6 0.5,-3.1 1.5,-4.4 1,-1.3 2.4,-2.3 4.1,-2.9 -1.4,-0.7 -2.6,-1.6 -3.4,-2.7 -0.8,-1.2 -1.2,-2.5 -1.2,-4 0,-2.7 0.9,-4.7 2.7,-6.2 1.8,-1.4 4.2,-2.2 7.1,-2.2 2.8,0 5.1,0.7 6.8,2.2 1.7,1.5 2.8,3.6 2.8,6.2 z m -5.1,13.8 c 0,-1.4 -0.4,-2.5 -1.3,-3.3 -0.8,-0.9 -1.9,-1.3 -3.1,-1.3 -1.4,0 -2.5,0.4 -3.4,1.3 -0.9,0.9 -1.4,2 -1.4,3.3 0,1.4 0.4,2.5 1.3,3.3 0.9,0.8 2.1,1.2 3.5,1.2 1.3,0 2.3,-0.4 3.1,-1.2 0.9,-0.8 1.3,-1.9 1.3,-3.3 z m -1,-13.5 c 0,-1.2 -0.3,-2.1 -0.9,-2.9 -0.6,-0.7 -1.4,-1.1 -2.4,-1.1 -1.1,0 -2.1,0.3 -2.7,1 -0.6,0.7 -1,1.6 -1,2.9 0,1.2 0.3,2.2 1,3 0.7,0.8 1.6,1.1 2.8,1.1 1,0 1.8,-0.4 2.4,-1.1 0.5,-0.6 0.8,-1.6 0.8,-2.9 z"
                 id="XMLID_106_" />
            </g>
          </g>
          <g
             transform="translate(160.58669,19.347788)"
             id="XMLID_173_">
            <rect
               style="fill:#ffce6c"
               class="st3"
               height="361.10001"
               id="XMLID_103_"
               width="94.900002"
               x="264.29999"
               y="103.3" />
            <g
               id="XMLID_92_">
              <path
                 style="fill:#474747"
                 inkscape:connector-curvature="0"
                 class="st1"
                 d="m 285.4,505.6 -20.6,0 0,-4 9.5,-10.7 c 1.4,-1.7 2.4,-3.1 3,-4.2 0.6,-1.2 0.9,-2.2 0.9,-3.2 0,-1.3 -0.3,-2.3 -0.9,-3 -0.6,-0.8 -1.6,-1.1 -2.8,-1.1 -1.3,0 -2.4,0.5 -3.1,1.5 -0.7,1 -1.1,2.2 -1.1,3.7 l -6,0 0,-0.1 c -0.1,-2.7 0.8,-5 2.7,-6.9 1.9,-1.9 4.4,-2.8 7.5,-2.8 3.1,0 5.6,0.8 7.3,2.4 1.7,1.6 2.6,3.8 2.6,6.5 0,1.8 -0.5,3.5 -1.5,5 -1,1.5 -2.7,3.6 -5,6.3 l -5.1,6.1 0,0.1 12.5,0 0,4.4 z"
                 id="XMLID_101_" />
              <path
                 style="fill:#474747"
                 inkscape:connector-curvature="0"
                 class="st1"
                 d="m 309.9,494.5 c 0,3.6 -0.9,6.4 -2.8,8.5 -1.9,2.1 -4.4,3.1 -7.5,3.1 -3.1,0 -5.7,-1 -7.6,-3.1 -1.9,-2.1 -2.8,-4.9 -2.8,-8.5 l 0,-8.5 c 0,-3.6 0.9,-6.4 2.8,-8.5 1.9,-2.1 4.4,-3.1 7.5,-3.1 3.1,0 5.6,1 7.5,3.1 1.9,2.1 2.9,4.9 2.9,8.5 l 0,8.5 z m -6.1,-9.1 c 0,-2 -0.4,-3.5 -1.1,-4.6 -0.8,-1.1 -1.8,-1.6 -3.1,-1.6 -1.3,0 -2.4,0.5 -3.1,1.6 -0.7,1.1 -1.1,2.6 -1.1,4.6 l 0,9.7 c 0,2 0.4,3.6 1.1,4.6 0.7,1.1 1.8,1.6 3.2,1.6 1.3,0 2.4,-0.5 3.1,-1.6 0.7,-1.1 1.1,-2.6 1.1,-4.6 l 0,-9.7 z"
                 id="XMLID_98_" />
              <path
                 style="fill:#474747"
                 inkscape:connector-curvature="0"
                 class="st1"
                 d="m 328.7,505.6 -6.1,0 0,-25.3 -6.3,0 0,-4.7 12.5,-1.1 0,31.1 z"
                 id="XMLID_96_" />
              <path
                 style="fill:#474747"
                 inkscape:connector-curvature="0"
                 class="st1"
                 d="m 347.9,501.3 c 1.5,0 2.8,-0.6 3.7,-1.7 1,-1.1 1.5,-2.7 1.5,-4.8 l 0,-2 c -0.7,0.9 -1.5,1.6 -2.4,2 -0.9,0.4 -2,0.7 -3,0.7 -2.9,0 -5.1,-0.9 -6.7,-2.8 -1.6,-1.9 -2.4,-4.4 -2.4,-7.6 0,-3.1 1,-5.6 2.9,-7.6 1.9,-2 4.4,-3 7.4,-3 3.1,0 5.6,1 7.6,3.1 2,2.1 2.9,5 2.9,8.6 l 0,8.3 c 0,3.5 -1.1,6.3 -3.2,8.4 -2.1,2.1 -4.8,3.1 -8.1,3.1 -1.1,0 -2.2,-0.1 -3.3,-0.3 -1.1,-0.2 -2.2,-0.6 -3.2,-1 l 1,-4.4 c 0.9,0.4 1.7,0.6 2.6,0.8 0.6,0.1 1.6,0.2 2.7,0.2 z m 0.7,-10.3 c 1,0 1.9,-0.2 2.6,-0.6 0.8,-0.4 1.4,-1 1.8,-1.6 l 0,-3.6 c 0,-1.9 -0.4,-3.4 -1.2,-4.4 -0.8,-1 -1.8,-1.5 -3.2,-1.5 -1.2,0 -2.2,0.6 -3,1.7 -0.8,1.1 -1.1,2.6 -1.1,4.2 0,1.8 0.3,3.2 1,4.2 0.8,1 1.8,1.6 3.1,1.6 z"
                 id="XMLID_93_" />
            </g>
          </g>
          <path
             inkscape:connector-curvature="0"
             id="path4367"
             d="m 538.05165,72.138722 -386.14023,0"
             style="fill:none;fill-rule:evenodd;stroke:#aaaaaf;stroke-width:3.93439245;stroke-linecap:round;stroke-linejoin:round;stroke-miterlimit:4;stroke-dasharray:3.93439236, 11.80317707;stroke-dashoffset:0;stroke-opacity:0.94117647" />
          <rect
             style="fill:#ed6f62"
             class="st4"
             height="412.70001"
             id="XMLID_90_"
             width="94.900002"
             x="536.28668"
             y="71.147789" />
          <g
             transform="translate(160.58668,19.347792)"
             id="XMLID_79_">
            <path
               style="fill:#474747"
               inkscape:connector-curvature="0"
               class="st1"
               d="m 396.8,505.6 -20.5,0 0,-4 9.5,-10.7 c 1.4,-1.7 2.4,-3.1 3,-4.2 0.6,-1.2 0.9,-2.2 0.9,-3.2 0,-1.3 -0.3,-2.3 -0.9,-3 -0.6,-0.8 -1.6,-1.1 -2.8,-1.1 -1.3,0 -2.4,0.5 -3.1,1.5 -0.7,1 -1.1,2.2 -1.1,3.7 l -6,0 0,-0.1 c -0.1,-2.7 0.8,-5 2.7,-6.9 1.9,-1.9 4.4,-2.8 7.5,-2.8 3.1,0 5.6,0.8 7.3,2.4 1.7,1.6 2.6,3.8 2.6,6.5 0,1.8 -0.5,3.5 -1.5,5 -1,1.5 -2.7,3.6 -5,6.3 l -5,6.1 0,0.1 12.5,0 0,4.4 z"
               id="XMLID_88_" />
            <path
               style="fill:#474747"
               inkscape:connector-curvature="0"
               class="st1"
               d="m 421.2,494.5 c 0,3.6 -0.9,6.4 -2.8,8.4 -1.9,2 -4.4,3.1 -7.5,3.1 -3.1,0 -5.7,-1 -7.5,-3.1 -1.9,-2 -2.8,-4.9 -2.8,-8.4 l 0,-8.4 c 0,-3.6 0.9,-6.4 2.8,-8.4 1.9,-2.1 4.4,-3.1 7.5,-3.1 3.1,0 5.6,1 7.5,3.1 1.9,2.1 2.8,4.9 2.8,8.4 l 0,8.4 z m -6.1,-9.1 c 0,-2 -0.4,-3.5 -1.1,-4.6 -0.8,-1.1 -1.8,-1.6 -3.1,-1.6 -1.3,0 -2.4,0.5 -3.1,1.6 -0.7,1.1 -1.1,2.6 -1.1,4.6 l 0,9.6 c 0,2 0.4,3.5 1.1,4.6 0.7,1.1 1.8,1.6 3.2,1.6 1.3,0 2.4,-0.5 3.1,-1.6 0.7,-1.1 1.1,-2.6 1.1,-4.6 l 0,-9.6 z"
               id="XMLID_85_" />
            <path
               style="fill:#474747"
               inkscape:connector-curvature="0"
               class="st1"
               d="m 446.2,505.6 -20.5,0 0,-4 9.5,-10.7 c 1.4,-1.7 2.4,-3.1 3,-4.2 0.6,-1.2 0.9,-2.2 0.9,-3.2 0,-1.3 -0.3,-2.3 -0.9,-3 -0.6,-0.8 -1.6,-1.1 -2.8,-1.1 -1.3,0 -2.4,0.5 -3.1,1.5 -0.7,1 -1.1,2.2 -1.1,3.7 l -6,0 0,-0.1 c -0.1,-2.7 0.8,-5 2.7,-6.9 1.9,-1.9 4.4,-2.8 7.5,-2.8 3.1,0 5.6,0.8 7.3,2.4 1.7,1.6 2.6,3.8 2.6,6.5 0,1.8 -0.5,3.5 -1.5,5 -1,1.5 -2.7,3.6 -5,6.3 l -5,6.1 0,0.1 12.5,0 0,4.4 z"
               id="XMLID_83_" />
            <path
               style="fill:#474747"
               inkscape:connector-curvature="0"
               class="st1"
               d="m 470.6,494.5 c 0,3.6 -0.9,6.4 -2.8,8.4 -1.9,2 -4.4,3.1 -7.5,3.1 -3.1,0 -5.7,-1 -7.5,-3.1 -1.9,-2 -2.8,-4.9 -2.8,-8.4 l 0,-8.4 c 0,-3.6 0.9,-6.4 2.8,-8.4 1.9,-2.1 4.4,-3.1 7.5,-3.1 3.1,0 5.6,1 7.5,3.1 1.9,2.1 2.8,4.9 2.8,8.4 l 0,8.4 z m -6.1,-9.1 c 0,-2 -0.4,-3.5 -1.1,-4.6 -0.8,-1.1 -1.8,-1.6 -3.1,-1.6 -1.3,0 -2.4,0.5 -3.1,1.6 -0.7,1.1 -1.1,2.6 -1.1,4.6 l 0,9.6 c 0,2 0.4,3.5 1.1,4.6 0.7,1.1 1.8,1.6 3.2,1.6 1.3,0 2.4,-0.5 3.1,-1.6 0.7,-1.1 1.1,-2.6 1.1,-4.6 l 0,-9.6 z"
               id="XMLID_80_" />
          </g>
          <path
             style="fill:none;fill-rule:evenodd;stroke:#aaaaaf;stroke-width:3.93439245;stroke-linecap:round;stroke-linejoin:round;stroke-miterlimit:4;stroke-dasharray:3.93439236, 11.80317707;stroke-dashoffset:0;stroke-opacity:0.94117647"
             d="m 426.29212,123.28581 -268.53331,0"
             id="path4369"
             inkscape:connector-curvature="0" />
          <path
             inkscape:connector-curvature="0"
             id="path4371"
             d="m 389.02503,174.43288 -235.92611,0"
             style="fill:none;fill-rule:evenodd;stroke:#aaaaaf;stroke-width:3.93439245;stroke-linecap:round;stroke-linejoin:round;stroke-miterlimit:4;stroke-dasharray:3.93439236, 11.80317707;stroke-dashoffset:0;stroke-opacity:0.94117647" />
          <path
             style="fill:none;fill-rule:evenodd;stroke:#aaaaaf;stroke-width:3.93439245;stroke-linecap:round;stroke-linejoin:round;stroke-miterlimit:4;stroke-dasharray:3.93439236, 11.80317707;stroke-dashoffset:0;stroke-opacity:0.94117647"
             d="m 292.76627,225.57995 -136.90612,0"
             id="path4373"
             inkscape:connector-curvature="0" />
          <path
             inkscape:connector-curvature="0"
             id="path4375"
             d="m 150.28773,553.49633 0,-632.060142"
             style="fill:none;fill-rule:evenodd;stroke:#000000;stroke-width:3.93439245;stroke-linecap:round;stroke-linejoin:round;stroke-miterlimit:4;stroke-dasharray:none;stroke-opacity:1;marker-end:url(#marker5019)" />
          <path
             inkscape:connector-curvature="0"
             id="path4657"
             d="m 60.655012,483.72344 716.882758,0"
             style="fill:none;fill-rule:evenodd;stroke:#000000;stroke-width:3.93439245;stroke-linecap:round;stroke-linejoin:round;stroke-miterlimit:4;stroke-dasharray:none;stroke-opacity:1;marker-end:url(#Arrow2Lend)" />
        </g>
      </g>
    </g>
    <g
       id="g5748"
       transform="translate(0,-9.2311604)">
      <g
         transform="translate(70.100159,943.53266)"
         id="g4251">
        <rect
           style="fill:none;stroke:#000000;stroke-width:2;stroke-linecap:round;stroke-miterlimit:10"
           height="31"
           stroke-miterlimit="10"
           width="12"
           x="3"
           y="18"
           id="rect4237" />
        <rect
           style="fill:none;stroke:#000000;stroke-width:2;stroke-linecap:round;stroke-miterlimit:10"
           height="20"
           stroke-miterlimit="10"
           width="12"
           x="19"
           y="29"
           id="rect4239" />
        <rect
           style="fill:none;stroke:#ffce6c;stroke-width:2;stroke-linecap:round;stroke-miterlimit:10;stroke-opacity:1"
           height="44"
           stroke-miterlimit="10"
           width="12"
           x="35"
           y="5"
           id="rect4241" />
        <rect
           style="fill:none"
           y="0"
           x="0"
           height="50"
           width="50"
           id="rect4243" />
      </g>
      <g
         transform="translate(9.1860771,-13.655334)"
         id="g4352">
        <rect
           style="fill:none"
           y="860.16406"
           x="60.914082"
           height="50"
           width="50"
           id="rect4258" />
        <circle
           cx="62.914082"
           cy="885.16406"
           r="2"
           id="circle4260"
           style="fill:#a6d17a;fill-opacity:1" />
        <circle
           cx="75.914078"
           cy="879.16406"
           r="2"
           id="circle4262"
           style="fill:#a6d17a;fill-opacity:1" />
        <circle
           cx="85.914078"
           cy="871.16406"
           r="2"
           id="circle4264"
           style="fill:#a6d17a;fill-opacity:1" />
        <circle
           cx="95.914078"
           cy="877.16406"
           r="2"
           id="circle4266"
           style="fill:#a6d17a;fill-opacity:1" />
        <circle
           cx="108.91408"
           cy="865.16406"
           r="2"
           id="circle4268"
           style="fill:#a6d17a;fill-opacity:1" />
        <circle
           cx="62.914082"
           cy="899.16406"
           r="2"
           id="circle4270" />
        <circle
           cx="75.914078"
           cy="901.16406"
           r="2"
           id="circle4272" />
        <circle
           cx="85.914078"
           cy="893.16406"
           r="2"
           id="circle4274" />
        <circle
           cx="95.914078"
           cy="903.16406"
           r="2"
           id="circle4276" />
        <circle
           cx="108.91408"
           cy="891.16406"
           r="2"
           id="circle4278" />
        <polyline
           style="fill:none;stroke:#a6d17a;stroke-width:2;stroke-linecap:round;stroke-miterlimit:10;stroke-opacity:1"
           points="2,25 15,19 25,11   35,17 48,5 "
           stroke-miterlimit="10"
           id="polyline4280"
           transform="translate(61.015928,860.2659)" />
        <polyline
           style="fill:none;stroke:#000000;stroke-width:2;stroke-linecap:round;stroke-miterlimit:10"
           points="2,39 15,41 25,33   35,43 48,31 "
           stroke-miterlimit="10"
           id="polyline4282"
           transform="translate(60.91408,860.16405)" />
      </g>
      <g
         transform="translate(70.100159,749.4848)"
         id="g4318">
        <path
           style="fill:none;stroke:#000000;stroke-width:2;stroke-miterlimit:10"
           inkscape:connector-curvature="0"
           d="M 25.213,7.183 C 26.125,7.062 27.055,7 28,7 39.598,7 49,16.402 49,28 49,39.598 39.598,49 28,49 16.402,49 7,39.598 7,28 7,27.004 7.069,26.024 7.203,25.066"
           stroke-miterlimit="10"
           id="path4306" />
        <path
           style="fill:none;stroke:#008080;stroke-width:2;stroke-linecap:round;stroke-miterlimit:10"
           inkscape:connector-curvature="0"
           d="M 22,22 1,22 C 1,10.402 10.402,1 22,1 l 0,21 z"
           stroke-miterlimit="10"
           id="path4308" />
        <rect
           style="fill:none"
           y="0"
           x="0"
           height="50"
           width="50"
           id="rect4310" />
      </g>
      <g
         transform="translate(8.4227282,6.515909)"
         id="g5729">
        <rect
           id="rect5605"
           y="666.75085"
           x="81.364365"
           width="12"
           stroke-miterlimit="10"
           height="31"
           style="fill:none;stroke:#000000;stroke-width:2;stroke-linecap:round;stroke-miterlimit:10" />
        <rect
           id="rect5607"
           y="677.75085"
           x="63.888798"
           width="12"
           stroke-miterlimit="10"
           height="20"
           style="fill:none;stroke:#000000;stroke-width:2;stroke-linecap:round;stroke-miterlimit:10" />
        <rect
           id="rect5609"
           y="653.75085"
           x="98.839935"
           width="12"
           stroke-miterlimit="10"
           height="44"
           style="fill:none;stroke:#000000;stroke-width:2;stroke-linecap:round;stroke-miterlimit:10;stroke-opacity:1" />
        <rect
           id="rect5611"
           width="50"
           height="50"
           x="63.839931"
           y="648.75085"
           style="fill:none" />
        <polyline
           style="fill:none;stroke:#008080;stroke-width:2;stroke-linecap:round;stroke-miterlimit:10;stroke-opacity:1"
           points="2,25 15,19 25,11   35,17 48,5 "
           stroke-miterlimit="10"
           id="polyline5637"
           transform="translate(60.116778,640.74092)" />
        <circle
           transform="translate(-2.4340909,6.08523)"
           cx="64.44902"
           cy="659.55383"
           r="2"
           id="circle5617"
           style="fill:#008080;fill-opacity:1;stroke:#008080" />
        <circle
           transform="translate(-2.4340909,6.08523)"
           cx="77.44902"
           cy="653.55383"
           r="2"
           id="circle5619"
           style="fill:#008080;fill-opacity:1;stroke:#008080" />
        <circle
           transform="translate(-2.4340909,6.08523)"
           cx="87.44902"
           cy="645.55383"
           r="2"
           id="circle5621"
           style="fill:#008080;fill-opacity:1;stroke:#008080" />
        <circle
           transform="translate(-2.4340909,6.08523)"
           cx="97.44902"
           cy="651.55383"
           r="2"
           id="circle5623"
           style="fill:#008080;fill-opacity:1;stroke:#008080" />
        <circle
           transform="translate(-2.4340909,6.08523)"
           cx="110.44902"
           cy="639.55383"
           r="2"
           id="circle5625"
           style="fill:#008080;fill-opacity:1;stroke:#008080" />
        <g
           id="g5668">
          <circle
             transform="scale(1,-1)"
             cx="63.753567"
             cy="-683.63678"
             r="2"
             id="circle5627"
             style="fill:#ed6f62;fill-opacity:1;stroke:#ed6f62;stroke-opacity:1" />
          <circle
             transform="scale(1,-1)"
             cx="76.753571"
             cy="-681.63678"
             r="2"
             id="circle5629"
             style="fill:#ed6f62;fill-opacity:1;stroke:#ed6f62;stroke-opacity:1" />
          <circle
             transform="scale(1,-1)"
             cx="86.753571"
             cy="-689.63678"
             r="2"
             id="circle5631"
             style="fill:#ed6f62;fill-opacity:1;stroke:#ed6f62;stroke-opacity:1" />
          <circle
             transform="scale(1,-1)"
             cx="96.753571"
             cy="-679.63678"
             r="2"
             id="circle5633"
             style="fill:#ed6f62;fill-opacity:1;stroke:#ed6f62;stroke-opacity:1" />
          <polyline
             style="fill:none;stroke:#ed6f62;stroke-width:2;stroke-linecap:round;stroke-miterlimit:10;stroke-opacity:1"
             points="2,39 15,41 25,33   35,43 48,31 "
             stroke-miterlimit="10"
             id="polyline5639"
             transform="matrix(1,0,0,-1,61.753567,722.6368)" />
          <circle
             transform="scale(1,-1)"
             cx="109.75357"
             cy="-691.63678"
             r="2"
             id="circle5635"
             style="fill:#ed6f62;fill-opacity:1;stroke:#ed6f62;stroke-opacity:1" />
        </g>
      </g>
    </g>
  </g>
  <style
     id="style4137"
     type="text/css">
	.st0{fill:#7DBAE7;}
	.st1{fill:#474747;}
	.st2{fill:#A6D17A;}
	.st3{fill:#FFCE6C;}
	.st4{fill:#ED6F62;}
</style>
</svg>
